<svg height="16" version="1.2" viewBox="0 0 513.37 394.55" xmlns="http://www.w3.org/2000/svg"><path d="M493.312 164.004l-42.465-5.364c-2.427-.256-4.635-.329-6.637-.242-11.61-4.105-7.432-14.3-7.29-14.638 6.55.406 27.95 3.001 56.392 20.245" fill="#1c1c19"/><path d="M406.964 242.831c.124.338.352.616.671.775-.237.388-.488.767-.753 1.136.06-.533.092-1.076.092-1.628 0-.087-.005-.183-.01-.283"/><path d="M406.964 242.831c.005.1.01.196.01.283 0 .552-.032 1.095-.091 1.628-3.194 4.448-8.394 7.354-14.283 7.354-6.245 0-11.71-3.262-14.834-8.166-.01-.137-.014-.278-.018-.42a1.4 1.4 0 00.602-1.049c3.184 4.425 8.375 7.308 14.25 7.308 5.89 0 11.094-2.906 14.28-7.349.013.142.04.279.086.411"/><path d="M96.692 164.705a5.62 5.62 0 00-5.625-5.62 5.617 5.617 0 00-5.62 5.62 5.62 5.62 0 005.62 5.625 5.624 5.624 0 005.625-5.625m145.274 43.793c2.536 0 14.62-48.852 14.62-56.921 0-8.075-6.545-14.616-14.62-14.616-8.07 0-14.612 6.541-14.612 14.616 0 8.07 12.327 56.92 14.612 56.92m62.824 35.308c.173-.278.342-.566.502-.853a1.3 1.3 0 01-.497-.324c-.447-9.22-11.865-54.467-14.452-56.346-2.632 1.92-14.46 48.947-14.46 56.853 0 .83.072 1.637.205 2.431 1.15 6.866 7.084 12.102 14.255 12.176 7.778-.082 14.1-6.227 14.447-13.937m47.465-84.345c.68-3.613 1.086-6.419 1.086-7.883 0-8.074-6.546-14.616-14.617-14.616-8.074 0-14.616 6.541-14.616 14.616 0 8.07 12.08 56.92 14.616 56.92 1.87 0 10.46-32.688 13.526-49.001.005 0 .014.011.018.019l-.014-.055m-181.826-3.034c11.404 12.513 17.9 29.788 17.9 29.788-2.203 0-13.736 45.384-14.566 55.895a1.321 1.321 0 01-.72.716c.218.41.451.803.697 1.19.456 7.66 6.815 13.736 14.588 13.736 7.527 0 13.727-5.688 14.529-13.006a17.6 17.6 0 001.734-3.015.462.462 0 01-.12-.023 1.218 1.218 0 01-.743-.648c-.25.433-.524.853-.812 1.264-.67-10.073-12.125-56.11-14.588-56.11 0 0-5.492-29.108-1.19-46.657 4.853-19.766 20.651-35.144 40.512-39.605 27.412-6.149 52.405 8.212 62.687 30.7 10.292-22.489 35.28-36.85 62.692-30.7 19.867 4.462 35.66 19.839 40.513 39.605 4.306 17.549-2.003 46.904-2.003 46.904s2.007-5.118 5.707-11.81c6.988-12.636 20.003-30.897 36.89-30.897.233 0 .47 0 .708.014h.004c.11 0 .817 0 2.076.073-.146.337-4.325 10.533 7.285 14.638-30.185 1.318-14.265 39.167-14.265 39.167s.525.283 6.916 21.623a54.65 54.65 0 013.795 12.819s.872 7.677.685 11.673c-1.296 28.105-24.077 50.922-52.178 52.273-21.755 1.045-40.887-10.578-50.69-28.123-9.392 16.81-27.356 28.188-47.984 28.188h-.297c-20.628 0-38.592-11.377-47.984-28.188-9.804 17.545-28.935 29.169-50.69 28.123-28.1-1.35-50.881-24.167-52.177-52.273-.187-3.996.684-11.673.684-11.673.005 0 .005-.014.01-.019a54.646 54.646 0 013.786-12.8c6.39-21.34 6.915-21.623 6.915-21.623a209.533 209.533 0 01-7.933 1.816c-.456.09-.921.186-1.391.282h-.488c-1.857-4.867-3.709-9.73-5.534-14.593-35.886 12.335-95.996 6.442-113.28 6.314l-6.177-4.635-2.404-13.042s3.603-9.785 8.58-12.02c4.982-2.23 31.244-7.208 31.244-7.208 22.484-13.73 69.493-11.144 80.304-10.797 5.342.169 8.376.169 10.082.128.707-.065 1.405-.11 2.098-.128 9.653-.292 17.95 5.378 24.593 12.659m221.929 29.788c-2.537 0-14.617 48.852-14.617 56.921 0 .132.005.265.005.397-.036.031-.082.055-.123.077-.018.012-.036.014-.06.023.07.105.133.215.201.32.425 7.69 6.793 13.798 14.593 13.798 7.518 0 13.713-5.68 14.525-12.987.265-.37.516-.748.753-1.136a1.373 1.373 0 01-.67-.775c-.265-8.859-12.344-56.638-14.607-56.638" fill="#191919"/><path d="M377.746 243.532c.005.141.01.282.018.42-.068-.106-.132-.21-.2-.324.022 0 .04-.012.059-.02.041-.021.087-.045.123-.076M352.253 159.45l.014.055c-.01-.012-.014-.014-.019-.019 0-.014.005-.023.005-.036"/><path d="M352.253 159.45c0 .014-.005.022-.005.036-3.216-3.7-7.95-6.04-13.243-6.04-5.068 0-9.616 2.15-12.818 5.58a6.516 6.516 0 00.132-1.843 2.002 2.002 0 00-.114-.52c3.207-3.408 7.746-5.548 12.8-5.548 5.283 0 10.013 2.34 13.238 6.031a1.174 1.174 0 00-.21.74c.014.533.1 1.053.22 1.564M305.296 242.948c-.16.287-.329.575-.502.853.01-.224.014-.447.014-.67 0-.156 0-.325-.01-.507.137.146.306.25.498.324"/><path d="M304.805 243.065c0 .223-.01.447-.018.67-3.107 4.99-8.635 8.312-14.949 8.312-5.538 0-10.469-2.564-13.695-6.56.539-.27.913-.849.712-1.52 3.211 3.532 7.832 5.753 12.982 5.753 6.113 0 11.473-3.13 14.621-7.86.041.288.16.52.333.698.01.183.014.351.014.507M254.777 157.815c.018.552.105 1.09.232 1.62-3.22-3.71-7.96-6.058-13.26-6.058-5.068 0-9.616 2.148-12.819 5.579a6.517 6.517 0 00.132-1.843 1.998 1.998 0 00-.114-.52c3.207-3.408 7.75-5.547 12.8-5.547 5.283 0 10.013 2.344 13.239 6.03a1.203 1.203 0 00-.21.74M204.48 241.663c.04.014.082.019.118.024a17.595 17.595 0 01-1.733 3.015 13.985 13.985 0 00.06-2.422c.286-.411.56-.83.811-1.264.141.292.383.53.744.648"/><path d="M202.926 242.247a13.78 13.78 0 01-.059 2.422c-3.189 4.462-8.403 7.372-14.305 7.372-6.218 0-11.678-3.23-14.813-8.102a18.77 18.77 0 01-.023-.88c0-.292.014-.634.046-1.03.041-.092.073-.193.091-.297 3.134 4.799 8.535 7.983 14.698 7.983 5.944 0 11.185-2.952 14.365-7.468"/><path d="M173.72 243.065c0 .296.01.588.023.88-.247-.388-.48-.78-.698-1.186.328-.137.583-.397.72-.72a12.78 12.78 0 00-.045 1.026"/><path d="M141.792 232.554v.012-.012m148.556 61.62h.145a53.004 53.004 0 0027.257-7.526 53.412 53.412 0 0019.118-19.716l1.61-2.888 1.616 2.888a53.264 53.264 0 0020.163 20.326c8.726 4.973 18.694 7.336 28.826 6.852 13.128-.63 25.531-6.154 34.92-15.56 9.387-9.406 14.893-21.819 15.5-34.952.164-3.572-.57-10.428-.667-11.29l-.004-.012a52.64 52.64 0 00-3.663-12.372l-.041-.1-.032-.105c-4.576-15.282-6.104-19.63-6.57-20.82l-.022-.014-.255-.602c-.36-.862-8.795-21.253-1.154-33.328 3.311-5.223 9.045-8.051 17.042-8.398 2.13-.095 4.457-.014 6.911.247h.037l33.282 4.206c-9.402-5.06-18.776-8.969-27.977-11.674-9.488-2.783-16.335-3.535-19.574-3.731-1.004-.065-1.643-.07-1.88-.073h-.141a12.26 12.26 0 00-.653-.014c-6.984 0-14.004 3.426-20.86 10.177-5.004 4.932-9.99 11.765-14.41 19.767-3.59 6.495-5.589 11.54-5.607 11.59l-3.526-1.062c.064-.287 6.167-29.15 2.016-46.073-2.3-9.356-7.18-17.882-14.123-24.66a52.092 52.092 0 00-24.998-13.581c-12.69-2.851-25.318-1.31-36.52 4.448-10.584 5.437-19.138 14.392-24.087 25.212l-1.678 3.677-1.684-3.677c-4.95-10.82-13.502-19.775-24.086-25.212-11.203-5.757-23.83-7.3-36.517-4.448a52.044 52.044 0 00-24.998 13.58c-6.943 6.779-11.828 15.305-14.123 24.66-4.16 16.948 1.159 45.586 1.209 45.873l-3.545.995c-.063-.17-6.514-17.102-17.535-29.195-7.513-8.239-15.309-12.299-23.174-12.057h-.027c-.603.019-1.246.055-1.962.123h-.119c-2.271.055-5.697.014-10.181-.127-.616-.023-1.341-.05-2.176-.077-6.838-.251-21.066-.771-36.106.383-18.42 1.414-32.215 4.853-41.005 10.218l-.288.178-.333.064c-7.244 1.373-26.905 5.324-30.827 7.08-3.294 1.478-6.314 7.696-7.427 10.505l2.176 11.824 6.368 4.777-.027.953s-.01 1.31.634 2.76c.812 1.815 2.285 3.047 4.384 3.654 5.87 1.701 41.206 4.744 70.013 4.393a230.914 230.914 0 0031.22-2.5l.137-.019a221.749 221.749 0 0010.702-1.875c.47-.095.93-.191 1.377-.282 2.637-.548 5.283-1.15 7.865-1.798l14.47-3.613-12.6 6.738c-.46 1.19-1.993 5.538-6.568 20.82l-.028.105-.045.1a52.885 52.885 0 00-3.663 12.372v.012c-.096.862-.835 7.718-.671 11.29.607 13.133 6.113 25.545 15.5 34.952s21.791 14.93 34.924 15.56c10.127.488 20.095-1.88 28.822-6.852a53.322 53.322 0 0020.168-20.327l1.61-2.887 1.615 2.887a53.38 53.38 0 0019.118 19.716 52.994 52.994 0 0027.256 7.527h.147m.145 3.695h-.292a56.715 56.715 0 01-29.159-8.051 57.136 57.136 0 01-18.83-18.374 57.015 57.015 0 01-19.949 19.027c-8.54 4.862-18.187 7.399-28.058 7.399-.922 0-1.848-.023-2.77-.07-14.054-.674-27.32-6.582-37.36-16.64s-15.93-23.338-16.577-37.389c-.187-4.096.662-11.646.698-11.97l.014-.114.018-.077a56.526 56.526 0 013.86-13.051c2.55-8.508 4.465-14.684 5.71-18.38-1.532.357-3.074.694-4.616 1.013-.46.096-.926.192-1.4.288a223.834 223.834 0 01-11.021 1.925l-.142.023a236.201 236.201 0 01-31.58 2.518c-28.329.342-64.344-2.586-71.086-4.539-5.547-1.6-7.358-6.172-7.645-9.06l-6.058-4.543-2.623-14.25.173-.48c.397-1.071 4.033-10.582 9.562-13.06 4.867-2.18 28.132-6.67 31.325-7.276 21.782-13.06 64.726-11.486 78.881-10.97.826.03 1.547.059 2.153.076 5.433.174 8.385.17 9.918.133.78-.073 1.482-.115 2.148-.133h.027c8.973-.264 17.723 4.202 25.984 13.262 5.488 6.021 9.835 13.046 12.91 18.826-1.131-10.15-1.93-24.4.643-34.888 2.459-10.027 7.691-19.164 15.131-26.426a55.794 55.794 0 0126.769-14.543c13.544-3.038 27.032-1.391 39.016 4.767 10.2 5.241 18.64 13.54 24.081 23.598 5.442-10.059 13.877-18.357 24.077-23.598 11.984-6.158 25.472-7.805 39.016-4.767a55.84 55.84 0 0126.773 14.543c7.435 7.262 12.668 16.4 15.126 26.426 2.564 10.433 1.515 24.665.164 34.874.046-.077.087-.155.133-.237 4.657-8.426 9.72-15.36 15.054-20.61 7.572-7.458 15.46-11.24 23.452-11.24.246 0 .488 0 .734.014h.1c.265 0 .967.014 2.062.077 3.399.21 10.56.99 20.396 3.878 12.111 3.558 24.505 9.15 36.84 16.631l7.427 4.503-51.064-6.455c-2.263-.237-4.393-.315-6.341-.228-6.715.292-11.45 2.54-14.073 6.683-6.337 9.995.702 28.109 1.382 29.798.269.501.588 1.377 1.159 3.051 1.231 3.64 3.197 9.959 5.839 18.776a56.476 56.476 0 013.859 13.052l.023.077.009.118c.036.32.885 7.87.698 11.966-.648 14.05-6.537 27.328-16.577 37.388-10.04 10.058-23.306 15.966-37.356 16.641-10.834.52-21.494-2.012-30.832-7.33a57.02 57.02 0 01-19.948-19.028 57.137 57.137 0 01-18.831 18.375 56.708 56.708 0 01-29.154 8.051"/><path d="M188.364 189.93c-1.382 3.722-3.695 11.436-6.473 22.356-3.403 13.403-5.935 25.423-6.286 29.903a11.345 11.345 0 00-.018 1.66c.396 6.724 5.994 11.993 12.74 11.993 6.528 0 11.984-4.88 12.69-11.358a11.86 11.86 0 00.055-2.103c-.287-4.288-2.81-16.546-6.14-29.802-3.015-11.994-5.255-19.205-6.569-22.645m-.036 69.608c-8.7 0-15.916-6.797-16.43-15.474a14.753 14.753 0 01.023-2.158c.45-5.72 3.753-20.295 6.819-32.205 1.706-6.615 3.389-12.6 4.74-16.851.743-2.336 1.39-4.17 1.92-5.438.547-1.31 1.3-3.107 2.928-3.107 1.903 0 2.915 2.158 4.986 8.636 1.369 4.274 3.061 10.323 4.772 17.033 2.956 11.592 6.304 26.604 6.674 32.17.022.378.031.67.031.93 0 .612-.031 1.223-.095 1.816a16.438 16.438 0 01-16.368 14.648M241.966 138.78c-7.039 0-12.764 5.725-12.764 12.769 0 3.298 2.454 15.373 5.967 29.355 2.91 11.591 5.392 19.893 6.842 23.798 1.47-3.85 3.928-12.075 6.847-23.812 3.463-13.913 5.876-25.98 5.876-29.341 0-7.044-5.725-12.769-12.769-12.769m0 71.537c-1.528 0-2.258-1.478-2.992-3.262-.557-1.354-1.237-3.302-2.017-5.793-1.428-4.543-3.184-10.852-4.945-17.773-3.238-12.714-6.505-27.52-6.505-31.941 0-9.078 7.386-16.464 16.46-16.464 9.077 0 16.463 7.385 16.463 16.464 0 4.484-3.321 19.702-6.41 31.937-1.755 6.96-3.512 13.274-4.935 17.782-.79 2.495-1.483 4.447-2.057 5.807-.726 1.706-1.506 3.243-3.061 3.243M290.348 190.514c-1.473 4.096-3.86 12.18-6.647 23.264-3.517 13.986-5.966 26.056-5.966 29.355 0 .717.06 1.433.173 2.126a12.742 12.742 0 0012.44 10.634c6.76-.078 12.293-5.424 12.594-12.171v-.012c.01-.192.014-.388.014-.58 0-.136 0-.268-.01-.414-.191-3.978-2.663-15.912-6.149-29.698-2.727-10.792-5.018-18.534-6.45-22.507m0 69.073h-.023c-7.987-.081-14.743-5.852-16.062-13.717a16.536 16.536 0 01-.223-2.736c0-4.307 3.161-18.736 6.295-31.125 1.715-6.76 3.444-13.042 4.872-17.69 2.614-8.484 3.48-9.114 4.05-9.533l1.091-.79 1.086.79c.597.437 1.418 1.035 3.96 9.25 1.39 4.49 3.083 10.602 4.766 17.212 3.052 11.979 6.236 26.302 6.478 31.289.01.205.014.4.014.597 0 .25-.005.506-.014.757-.392 8.713-7.54 15.606-16.272 15.697zM338.718 138.78c-7.043 0-12.769 5.725-12.769 12.769 0 3.366 2.418 15.428 5.876 29.34 2.92 11.734 5.378 19.958 6.847 23.809 1-2.678 2.637-7.805 5.004-16.687 2.72-10.186 5.365-21.518 6.747-28.872l.005-.031c.876-4.653 1.058-6.678 1.058-7.559 0-7.043-5.73-12.769-12.769-12.769m0 71.538c-1.555 0-2.335-1.538-3.06-3.244-.575-1.36-1.269-3.312-2.058-5.807-1.423-4.507-3.175-10.82-4.931-17.782-3.088-12.235-6.414-27.453-6.414-31.937 0-9.078 7.386-16.464 16.464-16.464s16.463 7.386 16.463 16.464c0 1.528-.365 4.215-1.113 8.211l-.009.046c-1.492 7.955-4.338 20.025-7.24 30.764-1.46 5.374-2.8 9.913-3.877 13.124-.597 1.77-1.117 3.147-1.55 4.1-.43.945-1.141 2.523-2.674 2.523M392.309 189.93c-1.47 3.85-3.928 12.075-6.848 23.812-3.457 13.909-5.875 25.974-5.875 29.341 0 .119 0 .233.005.347l.013.37c.374 6.76 5.972 12.051 12.75 12.051 6.514 0 11.97-4.876 12.686-11.34.055-.461.082-.94.082-1.423 0-.07-.004-.137-.004-.215-.11-3.672-2.61-15.83-6.077-29.578-2.864-11.354-5.3-19.506-6.733-23.36m.046 69.615c-8.74 0-15.957-6.828-16.44-15.545-.005-.155-.014-.31-.019-.47 0-.146-.004-.297-.004-.447 0-4.489 3.325-19.702 6.414-31.937 1.756-6.961 3.508-13.275 4.93-17.781.79-2.495 1.483-4.452 2.058-5.807.725-1.71 1.506-3.244 3.061-3.244 1.52 0 2.244 1.456 2.97 3.212.552 1.332 1.222 3.243 1.993 5.684 1.4 4.457 3.134 10.665 4.881 17.493 3.184 12.463 6.464 27.207 6.61 32.042.005.115.01.229.01.338 0 .62-.037 1.24-.105 1.834-.922 8.343-7.956 14.629-16.359 14.629"/><path d="M290.722 278.449c-14.155 0-24.31-4.566-30.176-13.571-3.76-5.766-5.753-13.384-5.935-22.64-.146-7.34.844-15.734 2.942-24.943 3.467-15.237 8.877-27.764 9.215-28.534 5.269-15.246 8.006-28.666 8.143-39.902.123-10.487-2.017-18.93-6.36-25.089-2.65-3.759-6.13-6.646-10.336-8.585-4.17-1.916-9.078-2.915-14.584-2.965-11.623-.114-20.92 4.174-26.86 12.399-4.597 6.368-7.047 14.839-7.27 25.171-.242 11.231 2.166 24.36 7.166 39.007 6.414 18.8 10.118 33.862 11.326 46.06 1.424 14.391-.57 24.86-6.094 32.004-3.148 4.07-7.495 7.03-12.928 8.804-5.62 1.834-12.58 2.46-20.701 1.848-10.807-.808-18.62-4.822-23.224-11.925-2.838-4.383-4.484-10.017-4.895-16.736-.347-5.67.178-12.276 1.565-19.63 2.504-13.339 7.335-26.704 10.533-35.549.766-2.121 1.432-3.955 1.966-5.515 2.317-6.774 2.573-13.557.757-20.163-1.473-5.356-3.941-9.188-5.278-10.994a16.449 16.449 0 00-.862-1.086l1.378-1.231c.013.014.392.437.967 1.217 1.418 1.912 4.023 5.958 5.574 11.605 1.916 6.97 1.651 14.12-.79 21.249a386.79 386.79 0 01-1.974 5.547c-3.175 8.79-7.979 22.069-10.456 35.261-2.928 15.574-1.897 27.357 3.066 35.02 4.27 6.592 11.61 10.323 21.81 11.09 7.878.588 14.602-.012 19.989-1.766 5.072-1.66 9.123-4.41 12.039-8.179 9.716-12.563 7.964-36.817-5.515-76.335-5.068-14.858-7.514-28.196-7.267-39.646.232-10.715 2.796-19.533 7.622-26.216 6.305-8.727 16.122-13.274 28.374-13.161 5.766.05 10.93 1.108 15.337 3.134 4.507 2.075 8.234 5.173 11.076 9.2 9.443 13.385 8.9 36.45-1.56 66.693l-.027.072c-.06.123-5.607 12.782-9.128 28.26-2.058 9.06-3.034 17.297-2.888 24.483.173 8.9 2.071 16.184 5.638 21.654 5.502 8.448 15.136 12.732 28.625 12.732 13.736 0 23.776-4.439 29.848-13.188 3.827-5.52 6.14-12.818 6.861-21.7.584-7.162.141-15.355-1.31-24.342-2.449-15.15-6.988-27.508-7.147-27.94-.197-.484-4.813-11.99-7.664-25.865-1.706-8.307-2.459-15.838-2.235-22.375.287-8.262 2.139-14.976 5.51-19.963 4.868-7.207 12.906-10.861 23.885-10.861h.265c11.413.06 20.104 3.991 25.819 11.687 3.75 5.045 6.231 11.75 7.367 19.917.908 6.482.976 13.904.205 22.061-1.309 13.854-4.635 25.213-4.666 25.327l-.032.082c-.046.123-5.014 12.63-7.901 27.955-1.688 8.968-2.345 17.134-1.953 24.268.484 8.836 2.591 16.089 6.268 21.559 5.693 8.475 15.291 12.822 28.525 12.922h.451c12.627 0 21.564-3.987 26.573-11.85 3.412-5.365 5.072-12.604 4.922-21.523-.119-7.207-1.41-15.505-3.837-24.665-4.137-15.633-10.227-28.484-10.287-28.611l-.013-.027c-.087-.205-2.158-5.027-2.354-11.286-.27-8.375 2.992-15.258 9.429-19.902l1.081 1.496c-5.998 4.333-8.913 10.505-8.667 18.347.182 5.766 2.09 10.332 2.199 10.592.264.557 6.286 13.39 10.4 28.918 2.464 9.306 3.773 17.754 3.896 25.107.155 9.288-1.601 16.87-5.21 22.545-5.369 8.434-14.83 12.709-28.127 12.709h-.47c-13.886-.105-23.995-4.726-30.047-13.745-3.864-5.748-6.077-13.32-6.578-22.504-.397-7.285.273-15.605 1.993-24.724 2.837-15.04 7.65-27.398 7.978-28.224.21-.734 3.34-11.692 4.59-24.97.752-8.011.688-15.283-.197-21.62-1.099-7.85-3.462-14.26-7.02-19.053-5.356-7.203-13.544-10.884-24.346-10.939-10.47-.055-18.07 3.325-22.613 10.045-3.17 4.694-4.917 11.076-5.19 18.977-.22 6.39.515 13.767 2.189 21.927 2.86 13.945 7.531 25.469 7.577 25.582l.01.028c.05.124 4.734 12.777 7.248 28.3 1.473 9.138 1.925 17.477 1.327 24.789-.752 9.21-3.17 16.814-7.184 22.603-6.442 9.279-16.993 13.983-31.366 13.983M70.521 193.9c-13.461 0-25.91-.584-35.302-1.022-5.598-.26-10.013-.465-13.115-.488l.014-1.847c3.138.023 7.572.228 13.188.488 24.651 1.154 70.542 3.298 99.783-6.751 7.855-2.701 14.077-6.145 18.488-10.242l1.26 1.355c-4.608 4.275-11.05 7.851-19.15 10.634-18.362 6.309-43.113 7.873-65.165 7.873" fill="#fff"/><path d="M175.25 292.696l-3.435-1.368 6.313-15.825 3.435 1.368zM405.656 292.58l-5.766-14.452 3.43-1.369 5.771 14.452z" fill="#1c1c19"/><path d="M91.063 161.786a2.858 2.858 0 00-2.851 2.85 2.855 2.855 0 002.85 2.852 2.852 2.852 0 002.852-2.851 2.855 2.855 0 00-2.851-2.851m0 11.244c-4.626 0-8.39-3.763-8.39-8.393 0-4.626 3.764-8.394 8.39-8.394 4.63 0 8.393 3.768 8.393 8.394 0 4.63-3.763 8.393-8.393 8.393" fill="#fff"/><path d="M448.375 160.501c-1.633-.278-3.134-.661-4.462-1.131-3.91-1.383-6.55-3.581-7.855-6.533-1.907-4.324-.2-8.786.005-9.292l.009-.031.032-.065.83.402.876.292-.027.077c-.069.169-1.697 4.096-.032 7.873 1.085 2.468 3.366 4.33 6.778 5.534 1.232.438 2.628.793 4.156 1.053z" fill="#1c1c19"/></svg>