<svg height="16" version="1.2" viewBox="0 0 513.37 394.55" xmlns="http://www.w3.org/2000/svg" xmlns:cc="http://creativecommons.org/ns#" xmlns:dc="http://purl.org/dc/elements/1.1/" xmlns:rdf="http://www.w3.org/1999/02/22-rdf-syntax-ns#">
 <g transform="translate(-316.24 -1015.7)">
  <g transform="matrix(1.1678 0 0 1.1678 -70.304 -181.6)">
   <path d="m753.43 1165.7-36.363-4.5938c-2.0781-0.2187-3.9688-0.2812-5.6836-0.207-9.9414-3.5156-6.3633-12.246-6.2422-12.535 5.6094 0.3476 23.934 2.5703 48.289 17.336" fill="#1c1c19"/>
   <path d="m679.49 1233.2c0.10547 0.2891 0.30078 0.5274 0.57422 0.6641-0.20313 0.332-0.41797 0.6562-0.64453 0.9726 0.0508-0.457 0.0781-0.9218 0.0781-1.3945 0-0.074-4e-3 -0.1563-8e-3 -0.2422"/>
   <path d="m679.49 1233.2c4e-3 0.086 8e-3 0.168 8e-3 0.2422 0 0.4727-0.0273 0.9375-0.0781 1.3945-2.7344 3.8086-7.1875 6.2969-12.23 6.2969-5.3477 0-10.027-2.793-12.703-6.9922-8e-3 -0.1172-0.0117-0.2383-0.0156-0.3594 0.29687-0.1953 0.48828-0.5429 0.51562-0.8984 2.7266 3.7891 7.1719 6.2578 12.203 6.2578 5.043 0 9.5-2.4883 12.227-6.293 0.0117 0.1211 0.0352 0.2383 0.0742 0.3516"/>
   <path d="m413.8 1166.3c0-2.6601-2.1562-4.8125-4.8164-4.8125-2.6602 0-4.8125 2.1524-4.8125 4.8125 0 2.6602 2.1524 4.8164 4.8125 4.8164 2.6602 0 4.8164-2.1562 4.8164-4.8164m124.4 37.5c2.1719 0 12.52-41.832 12.52-48.742 0-6.9141-5.6055-12.516-12.52-12.516-6.9102 0-12.512 5.6016-12.512 12.516 0 6.9101 10.555 48.742 12.512 48.742m53.797 30.234c0.14844-0.2383 0.29297-0.4844 0.42969-0.7305-0.16406-0.062-0.30859-0.1523-0.42578-0.2773-0.38281-7.8945-10.16-46.641-12.375-48.25-2.2539 1.6445-12.383 41.914-12.383 48.684 0 0.7109 0.0625 1.4023 0.17578 2.082 0.98437 5.8789 6.0664 10.363 12.207 10.426 6.6602-0.07 12.074-5.332 12.371-11.934m40.645-72.226c0.58204-3.0938 0.92969-5.4961 0.92969-6.75 0-6.9141-5.6055-12.516-12.516-12.516-6.9141 0-12.516 5.6016-12.516 12.516 0 6.9101 10.344 48.742 12.516 48.742 1.6016 0 8.957-27.992 11.582-41.961 4e-3 0 0.0117 0.01 0.0156 0.016-4e-3 -0.016-8e-3 -0.031-0.0117-0.047m-155.7-2.5977c9.7656 10.715 15.328 25.508 15.328 25.508-1.8867 0-11.762 38.863-12.473 47.863-0.11719 0.2773-0.33594 0.5-0.61719 0.6133 0.1875 0.3515 0.38672 0.6875 0.59766 1.0195 0.39062 6.5586 5.8359 11.762 12.492 11.762 6.4453 0 11.754-4.8711 12.441-11.137 0.57422-0.8047 1.0742-1.668 1.4844-2.582-0.0312 0-0.0664-0.01-0.10156-0.02-0.3086-0.1015-0.51954-0.3046-0.63672-0.5546-0.21485 0.371-0.44922 0.7304-0.69532 1.082-0.57421-8.625-10.383-48.047-12.492-48.047 0 0-4.7031-24.926-1.0195-39.953 4.1562-16.926 17.684-30.094 34.691-33.914 23.473-5.2656 44.875 7.0313 53.68 26.289 8.8125-19.258 30.211-31.555 53.684-26.289 17.012 3.8203 30.535 16.988 34.691 33.914 3.6875 15.027-1.7148 40.164-1.7148 40.164s1.7188-4.3828 4.8867-10.113c5.9844-10.82 17.129-26.457 31.59-26.457 0.19922 0 0.40234 0 0.60547 0.012h4e-3c0.0937 0 0.69922 0 1.7774 0.062-0.125 0.289-3.7031 9.0195 6.2383 12.535-25.848 1.1289-12.215 33.539-12.215 33.539s0.44922 0.2422 5.9219 18.516c1.5039 3.457 2.6055 7.1289 3.2461 10.961 0 0 4e-3 0.012 4e-3 0.016 0 0 0.74609 6.5742 0.58594 9.9961-1.1094 24.066-20.617 43.605-44.68 44.762-18.629 0.8945-35.012-9.0586-43.406-24.082-8.043 14.395-23.426 24.137-41.09 24.137h-0.12891-0.125c-17.664 0-33.047-9.7422-41.09-24.137-8.3945 15.024-24.777 24.977-43.406 24.082-24.062-1.1563-43.57-20.695-44.68-44.762-0.16016-3.4219 0.58594-9.9961 0.58594-9.9961 4e-3 0 4e-3 -0.012 8e-3 -0.016 0.63672-3.832 1.7422-7.5039 3.2422-10.961 5.4726-18.273 5.9219-18.516 5.9219-18.516-1.8945 0.4726-4.1719 1.0078-6.793 1.5547-0.39062 0.078-0.78906 0.1601-1.1914 0.2421h-0.41797c-1.5898-4.168-3.1758-8.3321-4.7383-12.496-30.73 10.562-82.203 5.5156-97.004 5.4062l-5.2891-3.9687-2.0586-11.168s3.0859-8.3789 7.3477-10.293c4.2656-1.9101 26.754-6.1719 26.754-6.1719 19.254-11.758 59.508-9.5429 68.766-9.246 4.5742 0.1445 7.1719 0.1445 8.6328 0.1093 0.60547-0.055 1.2031-0.094 1.7969-0.1093 8.2656-0.25 15.371 4.6054 21.059 10.84m190.04 25.508c-2.1719 0-12.516 41.832-12.516 48.742 0 0.1133 4e-3 0.2266 4e-3 0.3398-0.0312 0.027-0.0703 0.047-0.10547 0.066-0.0156 0.01-0.0312 0.012-0.0508 0.02 0.0586 0.09 0.11328 0.1836 0.17187 0.2734 0.36329 6.586 5.8164 11.816 12.496 11.816 6.4375 0 11.742-4.8633 12.438-11.121 0.22656-0.3164 0.4414-0.6406 0.64453-0.9726-0.27344-0.1367-0.46875-0.375-0.57422-0.6641-0.22656-7.5859-10.57-48.5-12.508-48.5" fill="#191919"/>
   <g>
    <path d="m654.47 1233.8c4e-3 0.1211 8e-3 0.2422 0.0156 0.3594-0.0586-0.09-0.11328-0.1797-0.17187-0.2773 0.0195 0 0.0352-0.01 0.0508-0.016 0.0352-0.019 0.0742-0.039 0.10547-0.066"/>
    <path d="m632.64 1161.8c4e-3 0.016 8e-3 0.031 0.0117 0.047-8e-3 -0.01-0.0117-0.012-0.0156-0.016 0-0.012 4e-3 -0.02 4e-3 -0.031"/>
    <path d="m632.64 1161.8c0 0.012-4e-3 0.019-4e-3 0.031-2.7539-3.168-6.8086-5.1719-11.34-5.1719-4.3398 0-8.2344 1.8399-10.977 4.7774 0.10547-0.5117 0.15625-1.0352 0.11328-1.5782-0.0117-0.1523-0.0469-0.3046-0.0976-0.4453 2.7461-2.9179 6.6328-4.75 10.961-4.75 4.5234 0 8.5742 2.0039 11.336 5.1641-0.11719 0.1641-0.1875 0.3711-0.17969 0.6328 0.0117 0.457 0.0859 0.9024 0.1875 1.3399"/>
    <path d="m592.43 1233.3c-0.13672 0.2461-0.28125 0.4922-0.42969 0.7305 8e-3 -0.1914 0.0117-0.3828 0.0117-0.5742 0-0.1328 0-0.2773-8e-3 -0.4336 0.11719 0.125 0.26172 0.2148 0.42578 0.2773"/>
    <path d="m592.01 1233.4c0 0.1914-8e-3 0.3828-0.0156 0.5742-2.6602 4.2735-7.3945 7.1172-12.801 7.1172-4.7422 0-8.9648-2.1953-11.727-5.6172 0.46094-0.2305 0.78125-0.7265 0.60937-1.3008 2.75 3.0235 6.707 4.9258 11.117 4.9258 5.2344 0 9.8242-2.6797 12.52-6.7305 0.0352 0.2461 0.13672 0.4454 0.28516 0.5977 8e-3 0.1563 0.0117 0.3008 0.0117 0.4336"/>
    <path d="m549.17 1160.4c0.0156 0.4727 0.0898 0.9336 0.19922 1.3867-2.7578-3.1758-6.8164-5.1875-11.355-5.1875-4.3398 0-8.2344 1.8399-10.977 4.7774 0.10546-0.5117 0.15625-1.0352 0.11328-1.5782-0.0117-0.1523-0.0469-0.3046-0.0977-0.4453 2.7461-2.9179 6.6367-4.75 10.961-4.75 4.5234 0 8.5742 2.0078 11.336 5.1641-0.11719 0.1641-0.1836 0.3711-0.17969 0.6328"/>
    <path d="m506.1 1232.2c0.0351 0.012 0.0703 0.016 0.10156 0.02-0.41016 0.914-0.91016 1.7773-1.4844 2.582 0.0508-0.4531 0.0742-0.9102 0.0742-1.3789 0-0.2031-8e-3 -0.4336-0.0234-0.6953 0.2461-0.3516 0.48047-0.711 0.69532-1.082 0.12109 0.25 0.32812 0.4531 0.63672 0.5546"/>
    <path d="m504.77 1232.7c0.0156 0.2617 0.0234 0.4922 0.0234 0.6953 0 0.4687-0.0234 0.9297-0.0742 1.3789-2.7305 3.8203-7.1953 6.3125-12.25 6.3125-5.3242 0-10-2.7656-12.684-6.9375-0.0117-0.25-0.0195-0.5-0.0195-0.7539 0-0.25 0.0117-0.543 0.0391-0.8828 0.0352-0.078 0.0625-0.1641 0.0781-0.2539 2.6836 4.1094 7.3086 6.8359 12.586 6.8359 5.0898 0 9.5781-2.5273 12.301-6.3945"/>
    <path d="m479.76 1233.4c0 0.2539 8e-3 0.5039 0.0195 0.7539-0.21094-0.332-0.41016-0.668-0.59766-1.0156 0.28125-0.1172 0.5-0.3399 0.61719-0.6172-0.0273 0.3359-0.0391 0.6289-0.0391 0.8789"/>
    <path d="m452.42 1224.4v0.01-0.01m127.21 52.766h0.0898 0.0352c8.2422 0 16.309-2.2304 23.34-6.4453 6.8242-4.0937 12.488-9.9336 16.371-16.883l1.3789-2.4727 1.3828 2.4727c4.0586 7.2695 10.031 13.289 17.266 17.406 7.4726 4.2578 16.008 6.2812 24.684 5.8671 11.242-0.539 21.863-5.2695 29.902-13.324 8.0391-8.0547 12.754-18.684 13.273-29.93 0.14063-3.0586-0.48828-8.9297-0.57031-9.6679l-4e-3 -0.01c-0.60547-3.6407-1.6602-7.2032-3.1367-10.594l-0.0352-0.086-0.0273-0.09c-3.918-13.086-5.2266-16.809-5.625-17.828l-0.0195-0.012-0.21875-0.5156c-0.30859-0.7383-7.5312-18.199-0.98828-28.539 2.8359-4.4727 7.7461-6.8945 14.594-7.1914 1.8242-0.082 3.8164-0.012 5.918 0.2109h0.0312l28.5 3.6016c-8.0508-4.332-16.078-7.6797-23.957-9.9961-8.125-2.3828-13.988-3.0273-16.762-3.1953-0.85937-0.055-1.4062-0.059-1.6094-0.062h-0.0899-0.0312c-0.1875-0.01-0.375-0.012-0.55859-0.012-5.9805 0-11.992 2.9336-17.863 8.7148-4.2852 4.2227-8.5547 10.074-12.34 16.926-3.0742 5.5625-4.7852 9.8828-4.8008 9.9258l-3.0195-0.9102c0.0547-0.2461 5.2812-24.961 1.7266-39.453-1.9688-8.0117-6.1484-15.312-12.094-21.117-5.9375-5.7969-13.34-9.8203-21.406-11.629-10.867-2.4414-21.68-1.1211-31.273 3.8086-9.0625 4.6562-16.387 12.324-20.625 21.59l-1.4375 3.1485-1.4414-3.1485c-4.2383-9.2656-11.562-16.934-20.625-21.59-9.5938-4.9297-20.406-6.25-31.27-3.8086-8.0703 1.8086-15.473 5.832-21.406 11.629-5.9453 5.8047-10.129 13.106-12.094 21.117-3.5625 14.512 0.99219 39.035 1.0352 39.281l-3.0352 0.8516c-0.0547-0.1445-5.5781-14.644-15.016-25-6.4336-7.0547-13.109-10.531-19.844-10.324h-0.0234c-0.51563 0.016-1.0664 0.047-1.6797 0.1055h-0.10156c-1.9453 0.047-4.8789 0.012-8.7188-0.1094-0.52735-0.019-1.1484-0.043-1.8633-0.066-5.8555-0.2149-18.039-0.6602-30.918 0.3281-15.773 1.2109-27.586 4.1563-35.113 8.75l-0.24609 0.1523-0.28516 0.055c-6.2031 1.1758-23.039 4.5586-26.398 6.0625-2.8203 1.2657-5.4062 6.5899-6.3594 8.9961l1.8633 10.125 5.4531 4.0899-0.0234 0.8164s-8e-3 1.1211 0.54297 2.3633c0.69531 1.5546 1.957 2.6093 3.7539 3.1289 5.0273 1.457 35.285 4.0625 59.953 3.7617 8.9609-0.1094 17.957-0.8281 26.734-2.1406l0.11718-0.016c3.0781-0.4609 6.1641-1.0039 9.1641-1.6054 0.40234-0.082 0.79687-0.1641 1.1797-0.2422 2.2578-0.4688 4.5234-0.9844 6.7344-1.5391l12.391-3.0937-10.789 5.7695c-0.39453 1.0195-1.707 4.7422-5.625 17.828l-0.0234 0.09-0.0391 0.086c-1.4766 3.3984-2.5312 6.9609-3.1367 10.594v0.01c-0.082 0.7382-0.71484 6.6093-0.57422 9.6679 0.51953 11.246 5.2344 21.875 13.273 29.93s18.66 12.785 29.906 13.324c8.6719 0.418 17.207-1.6093 24.68-5.8671 7.2344-4.1172 13.207-10.137 17.27-17.406l1.3789-2.4727 1.3828 2.4727c3.8828 6.9492 9.543 12.789 16.371 16.883 7.0274 4.2149 15.098 6.4453 23.34 6.4453h0.0312 0.0937m0.125 3.1641h-0.0937-0.0664-0.0898c-8.8164 0-17.449-2.3867-24.969-6.8945-6.5274-3.918-12.059-9.3204-16.125-15.734-4.2695 6.7344-10.129 12.336-17.082 16.293-7.3125 4.164-15.574 6.3359-24.027 6.3359-0.78906 0-1.582-0.019-2.3711-0.059-12.035-0.5781-23.395-5.6367-31.992-14.25s-13.641-19.984-14.195-32.016c-0.16016-3.5078 0.5664-9.9727 0.59765-10.25l0.0117-0.098 0.0156-0.066c0.64453-3.832 1.7539-7.5898 3.3047-11.176 2.1836-7.2851 3.8242-12.574 4.8906-15.738-1.3125 0.3047-2.6328 0.5938-3.9531 0.8672-0.39453 0.082-0.79296 0.1641-1.1992 0.2461-3.0898 0.6211-6.2695 1.1758-9.4375 1.6485l-0.1211 0.02c-8.8789 1.3164-17.977 2.043-27.043 2.1562-24.258 0.293-55.098-2.2148-60.871-3.8867-4.75-1.3711-6.3008-5.2851-6.5469-7.7578l-5.1875-3.8906-2.2461-12.203 0.14844-0.4102c0.33984-0.918 3.4531-9.0625 8.1875-11.184 4.168-1.8672 24.09-5.7109 26.824-6.2305 18.652-11.184 55.426-9.8359 67.547-9.3945 0.70703 0.027 1.3242 0.051 1.8438 0.066 4.6524 0.1485 7.1797 0.1446 8.4922 0.1133 0.66797-0.062 1.2695-0.098 1.8398-0.1133h0.0234c7.6836-0.2265 15.176 3.5977 22.25 11.356 4.6992 5.1562 8.4219 11.172 11.055 16.121-0.96875-8.6914-1.6524-20.894 0.55078-29.875 2.1055-8.586 6.5859-16.41 12.957-22.629 6.3555-6.2071 14.281-10.512 22.922-12.453 11.598-2.6016 23.148-1.1915 33.41 4.082 8.7344 4.4883 15.961 11.594 20.621 20.207 4.6602-8.6133 11.883-15.719 20.617-20.207 10.262-5.2735 21.812-6.6836 33.41-4.082 8.6406 1.9414 16.566 6.246 22.926 12.453 6.3672 6.2187 10.848 14.043 12.953 22.629 2.1953 8.9336 1.2969 21.121 0.14062 29.863 0.0391-0.066 0.0742-0.1328 0.11328-0.2032 3.9883-7.2148 8.3242-13.152 12.891-17.648 6.4844-6.3867 13.238-9.625 20.082-9.625 0.21094 0 0.41797 0 0.6289 0.012h0.0859c0.22656 0 0.82813 0.012 1.7656 0.066 2.9102 0.1797 9.043 0.8477 17.465 3.3203 10.371 3.0469 20.984 7.836 31.547 14.242l6.3594 3.8555-43.727-5.5273c-1.9375-0.2032-3.7617-0.2696-5.4297-0.1954-5.75 0.25-9.8047 2.1758-12.051 5.7227-5.4258 8.5586 0.60156 24.07 1.1836 25.516 0.23047 0.4297 0.50391 1.1797 0.99219 2.6133 1.0547 3.1172 2.7383 8.5273 5 16.078 1.5469 3.5782 2.6602 7.336 3.3047 11.176l0.0195 0.066 8e-3 0.1016c0.0312 0.2734 0.75781 6.7383 0.59766 10.246-0.55469 12.031-5.5977 23.402-14.195 32.016-8.5977 8.6133-19.957 13.672-31.988 14.25-9.2773 0.4453-18.406-1.7227-26.402-6.2773-6.9531-3.9571-12.812-9.5586-17.082-16.293-4.0664 6.414-9.5977 11.816-16.125 15.734-7.5195 4.5078-16.152 6.8945-24.965 6.8945"/>
    <path d="m492.3 1187.9c-1.1836 3.1875-3.1641 9.793-5.543 19.144-2.9141 11.477-5.082 21.77-5.3828 25.606-0.0234 0.3086-0.0352 0.5586-0.0352 0.7578 0 0.2148 4e-3 0.4375 0.0195 0.6641 0.33984 5.7578 5.1328 10.27 10.91 10.27 5.5898 0 10.262-4.1797 10.867-9.7266 0.0469-0.3906 0.0664-0.7969 0.0664-1.2031 0-0.1563-4e-3 -0.3516-0.0195-0.5977-0.24609-3.6718-2.4062-14.168-5.2578-25.52-2.582-10.27-4.5-16.445-5.625-19.391m-0.0312 59.606c-7.4492 0-13.629-5.8204-14.07-13.25-0.0156-0.293-0.0234-0.5743-0.0234-0.8477 0-0.2773 0.0117-0.6055 0.043-1 0.38671-4.8984 3.2148-17.379 5.8398-27.578 1.4609-5.6641 2.9023-10.789 4.0586-14.43 0.63672-2 1.1914-3.5703 1.6445-4.6563 0.46875-1.1211 1.1133-2.6601 2.5078-2.6601 1.6289 0 2.4961 1.8476 4.2695 7.3945 1.1719 3.6602 2.6211 8.8399 4.0859 14.586 2.5312 9.9258 5.3984 22.781 5.7148 27.547 0.0195 0.3242 0.0273 0.5742 0.0273 0.7969 0 0.5234-0.0273 1.0469-0.082 1.5547-0.78906 7.1523-6.8125 12.543-14.016 12.543"/>
    <path d="m538.2 1144.1c-6.0274 0-10.93 4.9023-10.93 10.934 0 2.8242 2.1016 13.164 5.1094 25.137 2.4922 9.9258 4.6172 17.035 5.8594 20.379 1.2578-3.2969 3.3633-10.34 5.8633-20.391 2.9648-11.914 5.0312-22.246 5.0312-25.125 0-6.0313-4.9023-10.934-10.934-10.934m0 61.258c-1.3086 0-1.9336-1.2657-2.5625-2.793-0.47656-1.1602-1.0586-2.8281-1.7266-4.9609-1.2227-3.8907-2.7266-9.293-4.2344-15.219-2.7734-10.887-5.5703-23.566-5.5703-27.352 0-7.7735 6.3242-14.098 14.094-14.098 7.7734 0 14.098 6.3242 14.098 14.098 0 3.8398-2.8438 16.871-5.4883 27.348-1.5039 5.9609-3.0078 11.367-4.2266 15.227-0.67578 2.1367-1.2695 3.8086-1.7617 4.9726-0.62109 1.461-1.2891 2.7774-2.6211 2.7774"/>
    <path d="m579.63 1188.4c-1.2617 3.5078-3.3047 10.43-5.6914 19.922-3.0117 11.976-5.1094 22.312-5.1094 25.137 0 0.6133 0.0508 1.2266 0.14844 1.8203 0.875 5.2149 5.3516 9.043 10.652 9.1055 5.7891-0.066 10.527-4.6446 10.785-10.422v-0.01c8e-3 -0.1641 0.0117-0.332 0.0117-0.4961 0-0.1172 0-0.2305-8e-3 -0.3555-0.16406-3.4062-2.2812-13.625-5.2656-25.43-2.3359-9.2421-4.2969-15.871-5.5234-19.273m0 59.148h-0.0195c-6.8398-0.07-12.625-5.0117-13.754-11.746-0.12891-0.7656-0.19141-1.5546-0.19141-2.3437 0-3.6875 2.707-16.043 5.3906-26.652 1.4688-5.7891 2.9492-11.168 4.1719-15.148 2.2383-7.2656 2.9805-7.8047 3.4688-8.164l0.9336-0.6758 0.92968 0.6758c0.51172 0.375 1.2148 0.8867 3.3906 7.9218 1.1914 3.8438 2.6406 9.0782 4.082 14.738 2.6133 10.258 5.3398 22.523 5.5469 26.793 8e-3 0.1758 0.0117 0.3437 0.0117 0.5117 0 0.2148-4e-3 0.4336-0.0117 0.6484-0.33593 7.461-6.457 13.363-13.934 13.441z"/>
    <path d="m621.05 1144.1c-6.0312 0-10.934 4.9023-10.934 10.934 0 2.8828 2.0703 13.211 5.0312 25.125 2.5 10.047 4.6055 17.09 5.8633 20.387 0.85547-2.293 2.2578-6.6836 4.2852-14.289 2.3281-8.7226 4.5938-18.426 5.7773-24.723l4e-3 -0.027c0.75-3.9844 0.90625-5.7187 0.90625-6.4726 0-6.0313-4.9062-10.934-10.934-10.934m0 61.258c-1.332 0-2-1.3164-2.6211-2.7774-0.49218-1.164-1.0859-2.8359-1.7617-4.9726-1.2188-3.8594-2.7188-9.2657-4.2226-15.227-2.6445-10.477-5.4922-23.508-5.4922-27.348 0-7.7735 6.3242-14.098 14.098-14.098 7.7734 0 14.098 6.3242 14.098 14.098 0 1.3085-0.3125 3.6093-0.95312 7.0312l-8e-3 0.039c-1.2774 6.8125-3.7148 17.148-6.1992 26.344-1.25 4.6016-2.3984 8.4883-3.3203 11.238-0.51171 1.5156-0.95703 2.6953-1.3281 3.5117-0.36719 0.8086-0.97656 2.1602-2.2891 2.1602"/>
    <path d="m666.94 1187.9c-1.2578 3.2968-3.3633 10.34-5.8633 20.391-2.9609 11.91-5.0312 22.242-5.0312 25.125 0 0.1016 0 0.1992 4e-3 0.2969 4e-3 0.1054 8e-3 0.2148 0.0117 0.3164 0.32031 5.789 5.1133 10.32 10.918 10.32 5.5781 0 10.25-4.1758 10.863-9.7109 0.0469-0.3945 0.0703-0.8046 0.0703-1.2187 0-0.059-4e-3 -0.1172-4e-3 -0.1836-0.0937-3.1445-2.2344-13.555-5.2031-25.328-2.4531-9.7227-4.5391-16.703-5.7656-20.004m0.0391 59.613c-7.4844 0-13.664-5.8477-14.078-13.312-4e-3 -0.1329-0.0117-0.2657-0.0156-0.4024 0-0.125-4e-3 -0.2539-4e-3 -0.3828 0-3.8438 2.8477-16.871 5.4922-27.348 1.5039-5.9609 3.0039-11.367 4.2227-15.226 0.67578-2.1367 1.2695-3.8125 1.7617-4.9727 0.6211-1.4648 1.2891-2.7773 2.6211-2.7773 1.3008 0 1.9219 1.2461 2.543 2.75 0.47265 1.1406 1.0469 2.7773 1.707 4.8672 1.1992 3.8164 2.6836 9.1328 4.1797 14.98 2.7266 10.672 5.5352 23.297 5.6602 27.438 4e-3 0.098 8e-3 0.1953 8e-3 0.2891 0 0.5312-0.0312 1.0625-0.0898 1.5703-0.78906 7.1445-6.8125 12.527-14.008 12.527"/>
   </g>
   <path d="m579.95 1263.7c-12.121 0-20.816-3.9101-25.84-11.621-3.2188-4.9375-4.9258-11.461-5.082-19.387-0.125-6.2851 0.72265-13.473 2.5195-21.359 2.9688-13.047 7.6016-23.774 7.8906-24.434 4.5117-13.055 6.8555-24.547 6.9727-34.168 0.10547-8.9805-1.7266-16.211-5.4453-21.484-2.2695-3.2187-5.25-5.6914-8.8516-7.3515-3.5703-1.6407-7.7734-2.4961-12.488-2.5391-9.9531-0.098-17.914 3.5742-23 10.617-3.9375 5.4531-6.0352 12.707-6.2266 21.555-0.20703 9.6172 1.8555 20.859 6.1367 33.402 5.4922 16.098 8.6641 28.996 9.6992 39.441 1.2188 12.324-0.48828 21.289-5.2188 27.406-2.6953 3.4843-6.418 6.0195-11.07 7.539-4.8125 1.5703-10.773 2.1055-17.727 1.5821-9.2539-0.6914-15.945-4.1289-19.887-10.211-2.4297-3.7539-3.8398-8.5781-4.1914-14.332-0.29688-4.8555 0.15234-10.512 1.3398-16.809 2.1445-11.422 6.2812-22.867 9.0195-30.441 0.65625-1.8164 1.2266-3.3867 1.6836-4.7227 1.9844-5.8007 2.2031-11.609 0.64843-17.266-1.2617-4.5859-3.375-7.8672-4.5195-9.414-0.44531-0.6016-0.73437-0.9258-0.73828-0.9297l1.1797-1.0547c0.0117 0.012 0.33594 0.375 0.82812 1.0429 1.2148 1.6368 3.4453 5.1016 4.7734 9.9375 1.6406 5.9688 1.4141 12.09-0.67578 18.195-0.46484 1.3515-1.0312 2.9257-1.6914 4.75-2.7188 7.5273-6.832 18.898-8.9531 30.195-2.5078 13.336-1.625 23.426 2.625 29.988 3.6562 5.6445 9.9414 8.8398 18.676 9.496 6.7461 0.504 12.504-0.01 17.117-1.5117 4.3438-1.4218 7.8125-3.7773 10.309-7.0039 8.3203-10.758 6.8203-31.527-4.7226-65.367-4.3398-12.723-6.4336-24.144-6.2227-33.949 0.19922-9.1758 2.3945-16.726 6.5273-22.449 5.3984-7.4727 13.805-11.367 24.297-11.27 4.9375 0.043 9.3594 0.9492 13.133 2.6836 3.8594 1.7773 7.0508 4.4296 9.4844 7.8789 8.0859 11.461 7.6211 31.211-1.3359 57.109l-0.0234 0.062c-0.0508 0.1055-4.8008 10.945-7.8164 24.199-1.7617 7.7578-2.5976 14.812-2.4726 20.965 0.14844 7.6211 1.7734 13.859 4.8281 18.543 4.7109 7.2343 12.961 10.902 24.512 10.902 11.762 0 20.359-3.8008 25.559-11.293 3.2773-4.7265 5.2578-10.976 5.875-18.582 0.5-6.1328 0.12109-13.148-1.1211-20.844-2.0976-12.973-5.9844-23.555-6.1211-23.926-0.16797-0.4141-4.1211-10.266-6.5625-22.148-1.4609-7.1132-2.1055-13.562-1.9141-19.16 0.24609-7.0742 1.832-12.824 4.7188-17.094 4.168-6.1718 11.051-9.3007 20.453-9.3007h0.22656c9.7734 0.051 17.215 3.4179 22.109 10.008 3.2109 4.3203 5.3359 10.062 6.3086 17.055 0.77735 5.5507 0.83594 11.906 0.17578 18.891-1.1211 11.863-3.9688 21.59-3.9961 21.688l-0.0273 0.07c-0.0391 0.1055-4.293 10.816-6.7656 23.938-1.4453 7.6797-2.0078 14.672-1.6719 20.781 0.41406 7.5665 2.2188 13.777 5.3672 18.461 4.875 7.2578 13.094 10.98 24.426 11.066h0.38672c10.812 0 18.465-3.4141 22.754-10.148 2.9219-4.5938 4.3438-10.793 4.2148-18.43-0.10156-6.1719-1.207-13.277-3.2852-21.121-3.543-13.387-8.7578-24.391-8.8086-24.5l-0.0117-0.023c-0.0742-0.1757-1.8476-4.3047-2.0156-9.664-0.23047-7.1719 2.5625-13.066 8.0742-17.043l0.92578 1.2813c-5.1367 3.7109-7.6328 8.996-7.4219 15.711 0.15625 4.9375 1.7891 8.8476 1.8828 9.0703 0.22656 0.4766 5.3828 11.465 8.9062 24.762 2.1094 7.9688 3.2305 15.203 3.3359 21.5 0.13282 7.9531-1.3711 14.445-4.4609 19.305-4.5977 7.2227-12.699 10.883-24.086 10.883h-0.40234c-11.891-0.09-20.547-4.0469-25.73-11.77-3.3086-4.9219-5.2031-11.406-5.6328-19.27-0.33984-6.2383 0.23438-13.363 1.707-21.172 2.4297-12.879 6.5508-23.461 6.832-24.168 0.17968-0.6289 2.8594-10.012 3.9297-21.383 0.64454-6.8594 0.58985-13.086-0.16796-18.512-0.94141-6.7227-2.9648-12.211-6.0117-16.316-4.5859-6.168-11.598-9.3203-20.848-9.3672-8.9648-0.047-15.473 2.8476-19.363 8.6016-2.7148 4.0195-4.2109 9.4843-4.4453 16.25-0.1875 5.4726 0.4414 11.789 1.875 18.777 2.4492 11.941 6.4492 21.809 6.4883 21.906l8e-3 0.024c0.043 0.1055 4.0547 10.941 6.207 24.234 1.2617 7.8242 1.6484 14.965 1.1367 21.226-0.64453 7.8867-2.7148 14.398-6.1523 19.356-5.5156 7.9453-14.551 11.973-26.859 11.973" fill="#fff"/>
   <path d="m391.39 1191.3c-11.527 0-22.188-0.5-30.23-0.875-4.793-0.2226-8.5742-0.3984-11.23-0.4179l0.0117-1.5821c2.6875 0.02 6.4844 0.1954 11.293 0.418 21.109 0.9883 60.406 2.8242 85.445-5.7812 6.7266-2.3125 12.055-5.2618 15.832-8.7696l1.0781 1.1602c-3.9453 3.6601-9.4609 6.7226-16.398 9.1055-15.723 5.4023-36.918 6.7421-55.801 6.7421" fill="#fff"/>
   <path d="m481.07 1275.9-2.9414-1.1718 5.4062-13.551 2.9414 1.1719z" fill="#1c1c19"/>
   <path d="m678.37 1275.8-4.9375-12.375 2.9375-1.1719 4.9414 12.375z" fill="#1c1c19"/>
   <path d="m408.98 1163.8c-1.3438 0-2.4414 1.0977-2.4414 2.4414 0 1.3477 1.0976 2.4414 2.4414 2.4414 1.3477 0 2.4414-1.0937 2.4414-2.4414 0-1.3437-1.0938-2.4414-2.4414-2.4414m0 9.6289c-3.9609 0-7.1836-3.2226-7.1836-7.1875 0-3.9609 3.2227-7.1875 7.1836-7.1875 3.9648 0 7.1875 3.2266 7.1875 7.1875 0 3.9649-3.2226 7.1875-7.1875 7.1875" fill="#fff"/>
   <path d="m714.95 1162.7c-1.3984-0.2383-2.6836-0.5665-3.8203-0.9688-3.3477-1.1836-5.6094-3.0664-6.7266-5.5937-1.6328-3.7032-0.17188-7.5235 4e-3 -7.9571l8e-3 -0.027 0.0273-0.055 0.71094 0.3437 0.75 0.25-0.0234 0.066c-0.0586 0.1446-1.4531 3.5079-0.0273 6.7422 0.92968 2.1133 2.8828 3.7071 5.8047 4.7383 1.0547 0.375 2.25 0.6797 3.5586 0.9024z" fill="#1c1c19"/>
  </g>
 </g>
</svg>
